<svg xmlns="http://www.w3.org/2000/svg" viewBox="0 0 1024 1024">
  <g transform="translate(0 1024) scale(1 -1)">
    <path d="M485.5 1023.4c-2.2-0.2-10.3-0.8-18-1.4-63.4-4.9-129.7-23.9-188.4-54.1-73.1-37.6-135.9-91.7-183.6-158.3-93.4-130.6-120-296.8-72.1-450.6 33.3-107.1 103-202 196-267 110.3-77 246.7-107.4 379.6-84.4 113.3 19.5 215.5 76 293.8 162.4 67.4 74.4 111.8 169.7 126.1 270.5 3.7 25.6 4.5 39.5 4.5 71.5s-0.8 45.8-4.5 71.5c-14.1 99.8-56.3 191.3-123.4 267.4-12.8 14.5-40.8 41.9-54 53-80.7 67.3-175.1 107-279.5 117.7-13.5 1.4-67.6 2.7-76.5 1.8zM551 929.5c120-12.8 226.6-74.5 298.3-172.8 41.8-57.2 67.7-123.7 77.4-198.2 2.2-17.5 2.6-79.8 0.5-99-2.9-26.8-8-53-14.8-76-6.5-21.6-21.5-57.8-23.3-55.9s-92.3 150.5-109.6 179.9c-6.4 11-12 20.3-12.4 20.7-0.6 0.7-57.6 1.2-342 3.4l-87.4 0.7 0.7-81.9c0.3-45.1 0.9-114.4 1.2-154.2l0.6-72.2-142.7 0.1-7.4 8.4c-52.5 59.8-86 135.1-97 218-17.9 135.6 24.9 264.4 119.4 359.1 72 72.1 164.6 114.2 267.4 121.4 16.8 1.2 53.1 0.4 71.1-1.5z"/>
  </g>
</svg>
